# xmcd
#
# Track frame offsets: 
#        150
#        12521
#        25109
#        35855
#        45935
#        60374
#        71398
#        86745
#        98324
#        111142
#        129219
#        142085
#        155006
#        170559
#
# Disc length: 2559 seconds
#
# Revision: 0
# Processed by: cddbd v1.4PL0 Copyright (c) Steve Scherf et al.
# Submitted via: ExactAudioCopy v0.90b4
#
DISCID=af09fd0e
DTITLE=Judy Coder - A Tribute to Patsy Montana
DYEAR=2000
DGENRE=Bluegrass
TTITLE0=I Want to be a Cowboy's Sweetheart
TTITLE1=My Poncho Pony
TTITLE2=Little Pardner
TTITLE3=Two-Seated Saddle
TTITLE4=Shine on Rocky Mountain Moonlight
TTITLE5=Cowboy Yodel
TTITLE6=Home on the Range
TTITLE7=Texas Plains
TTITLE8=Sioux City Sue
TTITLE9=Ridin' Down the Canyon
TTITLE10=Sixteen Pounds
TTITLE11=I Was Born in the Ozark Mountains
TTITLE12=Yodel, Sweet Molly
TTITLE13=Outrun the Rain
EXTD=
EXTT0=
EXTT1=
EXTT2=
EXTT3=
EXTT4=
EXTT5=
EXTT6=
EXTT7=
EXTT8=
EXTT9=
EXTT10=
EXTT11=
EXTT12=
EXTT13=
PLAYORDER=
